<svg width="113" height="21" viewBox="0 0 113 21" fill="none" xmlns="http://www.w3.org/2000/svg">
<path d="M14.68 9C14.68 10.0133 14.5133 10.96 14.18 11.84C13.8467 12.7067 13.3667 13.4667 12.74 14.12C12.1267 14.7733 11.4 15.2867 10.56 15.66C9.73333 16.02 8.82 16.2 7.82 16.2C6.82 16.2 5.9 16.02 5.06 15.66C4.22 15.2867 3.49333 14.7733 2.88 14.12C2.26667 13.4667 1.79333 12.7067 1.46 11.84C1.12667 10.96 0.96 10.0133 0.96 9C0.96 7.98667 1.12667 7.04667 1.46 6.18C1.79333 5.3 2.26667 4.53333 2.88 3.88C3.49333 3.22667 4.22 2.72 5.06 2.36C5.9 1.98667 6.82 1.8 7.82 1.8C8.82 1.8 9.73333 1.98667 10.56 2.36C11.4 2.72 12.1267 3.22667 12.74 3.88C13.3667 4.53333 13.8467 5.3 14.18 6.18C14.5133 7.04667 14.68 7.98667 14.68 9ZM12.48 9C12.48 8.02667 12.28 7.16 11.88 6.4C11.48 5.62667 10.9267 5.02 10.22 4.58C9.52667 4.12667 8.72667 3.9 7.82 3.9C6.9 3.9 6.08667 4.12667 5.38 4.58C4.68667 5.02 4.14 5.62667 3.74 6.4C3.35333 7.16 3.16 8.02667 3.16 9C3.16 9.97333 3.35333 10.8467 3.74 11.62C4.14 12.38 4.68667 12.9867 5.38 13.44C6.08667 13.88 6.9 14.1 7.82 14.1C8.72667 14.1 9.52667 13.88 10.22 13.44C10.9267 12.9867 11.48 12.3733 11.88 11.6C12.28 10.8267 12.48 9.96 12.48 9ZM22.9645 7.72C22.8312 7.65333 22.6645 7.6 22.4645 7.56C22.2779 7.50667 22.0779 7.48 21.8645 7.48C21.4379 7.48 21.0179 7.59333 20.6045 7.82C20.1912 8.03333 19.8445 8.34667 19.5645 8.76C19.2979 9.16 19.1645 9.64 19.1645 10.2V16H17.0845V5.5H19.1645V7.48C19.4579 6.84 19.8979 6.31333 20.4845 5.9C21.0845 5.48667 21.7112 5.28 22.3645 5.28C22.8579 5.28 23.2379 5.34667 23.5045 5.48L22.9645 7.72ZM26.298 17.74C26.698 18.0467 27.198 18.2933 27.798 18.48C28.398 18.6667 28.9846 18.76 29.558 18.76C30.638 18.76 31.4646 18.4933 32.038 17.96C32.6113 17.44 32.898 16.6533 32.898 15.6V14.32C32.7113 14.64 32.4446 14.9467 32.098 15.24C31.7513 15.52 31.3446 15.7533 30.878 15.94C30.4113 16.1133 29.9246 16.2 29.418 16.2C28.4446 16.2 27.5646 15.9667 26.778 15.5C25.9913 15.0333 25.3646 14.3867 24.898 13.56C24.4446 12.7333 24.218 11.7933 24.218 10.74C24.218 9.67333 24.4446 8.73333 24.898 7.92C25.3513 7.09333 25.9646 6.44667 26.738 5.98C27.5246 5.51333 28.398 5.28 29.358 5.28C30.158 5.28 30.8646 5.46 31.478 5.82C32.1046 6.16667 32.578 6.54667 32.898 6.96V5.5H34.958V15.36C34.958 16.6133 34.7046 17.62 34.198 18.38C33.7046 19.1533 33.0446 19.7133 32.218 20.06C31.4046 20.42 30.518 20.6 29.558 20.6C28.8113 20.6 28.0646 20.48 27.318 20.24C26.5846 20.0133 25.9913 19.7133 25.538 19.34L26.298 17.74ZM29.638 7.16C28.998 7.16 28.4246 7.32 27.918 7.64C27.4246 7.94667 27.0313 8.37333 26.738 8.92C26.458 9.45333 26.318 10.06 26.318 10.74C26.318 11.42 26.458 12.0267 26.738 12.56C27.0313 13.0933 27.4246 13.52 27.918 13.84C28.4246 14.1467 28.998 14.3 29.638 14.3C30.3046 14.3 30.8846 14.1467 31.378 13.84C31.8846 13.5333 32.278 13.1133 32.558 12.58C32.838 12.0333 32.978 11.42 32.978 10.74C32.978 10.0467 32.838 9.43333 32.558 8.9C32.278 8.36667 31.8846 7.94667 31.378 7.64C30.8846 7.32 30.3046 7.16 29.638 7.16Z" fill="#09A5C5"/>
<path d="M38.3663 16V2H47.4463V4.08H40.5263V7.96H46.5463V10.04H40.5263V16H38.3663ZM51.2575 3.22C50.7908 3.22 50.4442 3.1 50.2175 2.86C49.9908 2.62 49.8775 2.30667 49.8775 1.92C49.8775 1.58667 49.9908 1.28667 50.2175 1.02C50.4442 0.753333 50.7908 0.619999 51.2575 0.619999C51.7242 0.619999 52.0708 0.739999 52.2975 0.979999C52.5242 1.22 52.6375 1.53333 52.6375 1.92C52.6375 2.25333 52.5242 2.55333 52.2975 2.82C52.0708 3.08667 51.7242 3.22 51.2575 3.22ZM52.3175 16H50.2575V5.5H52.3175V16ZM60.9439 5.28C61.8906 5.28 62.6239 5.47333 63.1439 5.86C63.6639 6.24667 64.0239 6.76667 64.2239 7.42C64.4372 8.07333 64.5439 8.8 64.5439 9.6V16H62.4839V9.74C62.4839 9.23333 62.4172 8.78 62.2839 8.38C62.1506 7.98 61.9239 7.66667 61.6039 7.44C61.2839 7.21333 60.8372 7.12 60.2639 7.16C59.7306 7.16 59.2572 7.27333 58.8439 7.5C58.4306 7.72667 58.1039 8.02667 57.8639 8.4C57.6239 8.77333 57.5039 9.18667 57.5039 9.64V16H55.4439V5.5H57.5039V7.16C57.8239 6.66667 58.2906 6.23333 58.9039 5.86C59.5172 5.47333 60.1972 5.28 60.9439 5.28ZM77.1184 5.5V16H75.0384V14.38C74.7184 14.82 74.2451 15.2333 73.6184 15.62C72.9918 16.0067 72.2651 16.2 71.4384 16.2C70.5584 16.2 69.7518 15.9667 69.0184 15.5C68.2984 15.0333 67.7251 14.3867 67.2984 13.56C66.8718 12.7333 66.6584 11.7867 66.6584 10.72C66.6584 9.65333 66.8784 8.71333 67.3184 7.9C67.7584 7.07333 68.3651 6.43333 69.1384 5.98C69.9118 5.51333 70.7918 5.28 71.7784 5.28C72.5118 5.28 73.1518 5.44 73.6984 5.76C74.2584 6.08 74.7051 6.45333 75.0384 6.88V5.5H77.1184ZM71.9184 14.3C72.5584 14.3 73.1184 14.1467 73.5984 13.84C74.0784 13.52 74.4518 13.0933 74.7184 12.56C74.9851 12.0133 75.1184 11.4 75.1184 10.72C75.1184 10.0533 74.9851 9.45333 74.7184 8.92C74.4518 8.38667 74.0784 7.96667 73.5984 7.66C73.1184 7.34 72.5584 7.18 71.9184 7.18C71.3051 7.18 70.7584 7.33333 70.2784 7.64C69.7984 7.94667 69.4251 8.36667 69.1584 8.9C68.8918 9.43333 68.7584 10.04 68.7584 10.72C68.7584 11.4 68.8918 12.0133 69.1584 12.56C69.4251 13.0933 69.7984 13.52 70.2784 13.84C70.7584 14.1467 71.3051 14.3 71.9184 14.3ZM85.4947 5.28C86.4414 5.28 87.1747 5.47333 87.6947 5.86C88.2147 6.24667 88.5747 6.76667 88.7747 7.42C88.988 8.07333 89.0947 8.8 89.0947 9.6V16H87.0347V9.74C87.0347 9.23333 86.968 8.78 86.8347 8.38C86.7014 7.98 86.4747 7.66667 86.1547 7.44C85.8347 7.21333 85.388 7.12 84.8147 7.16C84.2814 7.16 83.808 7.27333 83.3947 7.5C82.9814 7.72667 82.6547 8.02667 82.4147 8.4C82.1747 8.77333 82.0547 9.18667 82.0547 9.64V16H79.9947V5.5H82.0547V7.16C82.3747 6.66667 82.8414 6.23333 83.4547 5.86C84.068 5.47333 84.748 5.28 85.4947 5.28ZM93.2092 10.74C93.2092 11.4333 93.3626 12.0533 93.6692 12.6C93.9892 13.1333 94.4026 13.56 94.9092 13.88C95.4292 14.1867 95.9826 14.34 96.5692 14.34C97.2359 14.34 97.8159 14.1667 98.3092 13.82C98.8026 13.4733 99.2026 13.1133 99.5092 12.74L100.649 14.14C100.396 14.5 100.049 14.84 99.6092 15.16C99.1692 15.4667 98.6692 15.72 98.1092 15.92C97.5492 16.1067 96.9626 16.2 96.3492 16.2C95.3892 16.2 94.5226 15.96 93.7492 15.48C92.9759 15 92.3626 14.3467 91.9092 13.52C91.4692 12.6933 91.2492 11.7667 91.2492 10.74C91.2492 9.7 91.4692 8.77333 91.9092 7.96C92.3626 7.13333 92.9759 6.48 93.7492 6C94.5226 5.52 95.3892 5.28 96.3492 5.28C97.3226 5.28 98.1892 5.48 98.9492 5.88C99.7092 6.26667 100.276 6.77333 100.649 7.4L99.5092 8.8C99.2026 8.34667 98.7626 7.96 98.1892 7.64C97.6292 7.30667 97.0826 7.14 96.5492 7.14C95.9226 7.14 95.3559 7.3 94.8492 7.62C94.3426 7.92667 93.9426 8.35333 93.6492 8.9C93.3559 9.43333 93.2092 10.0467 93.2092 10.74ZM111.612 14.62H111.592C111.166 15.0333 110.579 15.4 109.832 15.72C109.086 16.04 108.306 16.2 107.492 16.2C106.399 16.2 105.432 15.9733 104.592 15.52C103.766 15.0533 103.119 14.42 102.652 13.62C102.186 12.8067 101.952 11.8867 101.952 10.86C101.952 9.68667 102.199 8.68667 102.692 7.86C103.186 7.02 103.839 6.38 104.652 5.94C105.466 5.48667 106.352 5.26 107.312 5.26C108.192 5.26 108.992 5.48 109.712 5.92C110.432 6.34667 111.006 6.94 111.432 7.7C111.859 8.46 112.072 9.34667 112.072 10.36L112.052 11.24H104.012C104.132 12.1867 104.519 12.94 105.172 13.5C105.839 14.0467 106.679 14.32 107.692 14.32C108.426 14.32 109.019 14.1867 109.472 13.92C109.926 13.64 110.299 13.3733 110.592 13.12L111.612 14.62ZM107.312 7.16C106.526 7.16 105.839 7.34667 105.252 7.72C104.666 8.08 104.279 8.70667 104.092 9.6H109.972V9.46C109.932 9.00667 109.779 8.60667 109.512 8.26C109.259 7.91333 108.939 7.64667 108.552 7.46C108.166 7.26 107.752 7.16 107.312 7.16Z" fill="black"/>
</svg>
